<?xml version="1.0" encoding="UTF-8"?>
<svg width="193px" height="60px" viewBox="0 0 193 60" version="1.1" xmlns="http://www.w3.org/2000/svg" xmlns:xlink="http://www.w3.org/1999/xlink">
    <!-- Generator: sketchtool 52.6 (67491) - http://www.bohemiancoding.com/sketch -->
    <title>93307AB1-6C7F-42BC-9B1A-95867433D252</title>
    <desc>Created with sketchtool.</desc>
    <g id="Asset-Artboard-Page" stroke="none" stroke-width="1" fill="none" fill-rule="evenodd">
        <g id="Airista-Flow-Logo-(new)" fill="#FFFFFE">
            <g>
                <path d="M46.6597045,38.0382351 L46.6597045,12.5752942 L53.4952927,11.5120589 L53.4952927,38.0382351 L46.6597045,38.0382351 Z M50.0779397,9.18264685 C47.7820574,9.18264685 45.8947045,7.31029396 45.8947045,4.98088225 C45.8947045,2.65323525 47.8332339,0.780000003 50.1794103,0.780000003 C52.4752926,0.780000003 54.3123513,2.65323525 54.3123513,4.98088225 C54.3123513,7.31029396 52.4241161,9.18264685 50.0779397,9.18264685 Z" id="Fill-1"></path>
                <polyline id="Fill-2" points="105.052054 43.8458835 115.188524 43.8458835 115.188524 46.8952953 108.380289 46.8952953 108.380289 49.9447071 114.67676 49.9447071 114.67676 52.9950012 108.380289 52.9950012 108.380289 58.8397071 105.052054 58.8397071 105.052054 43.8458835"></polyline>
                <polyline id="Fill-3" points="123.254117 43.8458835 126.583235 43.8458835 126.583235 55.789413 132.750881 55.789413 132.750881 58.8397071 123.254117 58.8397071 123.254117 43.8458835"></polyline>
                <path d="M140.988528,51.3423543 C140.988528,52.049119 141.098822,52.6950014 141.319411,53.2808837 C141.539999,53.8667661 141.855881,54.3750014 142.268822,54.8047072 C142.681764,55.2361778 143.176764,55.5705896 143.75294,55.8114719 C144.328234,56.0505896 144.972352,56.1705896 145.683528,56.1705896 C146.394704,56.1705896 147.039704,56.0505896 147.614999,55.8114719 C148.191175,55.5705896 148.686175,55.2361778 149.098234,54.8047072 C149.510293,54.3750014 149.82794,53.8667661 150.048528,53.2808837 C150.269116,52.6950014 150.37941,52.049119 150.37941,51.3423543 C150.37941,50.651472 150.269116,50.0091191 150.048528,49.4161779 C149.82794,48.8232367 149.510293,48.311472 149.098234,47.8808838 C148.686175,47.4494132 148.191175,47.1141191 147.614999,46.8750015 C147.039704,46.6341191 146.394704,46.5150015 145.683528,46.5150015 C144.972352,46.5150015 144.328234,46.6341191 143.75294,46.8750015 C143.176764,47.1141191 142.681764,47.4494132 142.268822,47.8808838 C141.855881,48.311472 141.539999,48.8232367 141.319411,49.4161779 C141.098822,50.0091191 140.988528,50.651472 140.988528,51.3423543 Z M137.53147,51.3423541 C137.53147,50.1432365 137.734411,49.0561777 138.140293,48.0811778 C138.546176,47.1079425 139.110881,46.2785307 139.836175,45.5938249 C140.562352,44.9082367 141.422646,44.3832367 142.418822,44.0161779 C143.414117,43.649119 144.50294,43.4655896 145.683528,43.4655896 C146.864116,43.4655896 147.95294,43.649119 148.949116,44.0161779 C149.944411,44.3832367 150.805587,44.9082367 151.530881,45.5938249 C152.257058,46.2785307 152.822646,47.1079425 153.227646,48.0811778 C153.633528,49.0561777 153.836469,50.1432365 153.836469,51.3423541 C153.836469,52.5432365 153.633528,53.6294129 153.227646,54.6044129 C152.822646,55.5776481 152.257058,56.4079422 151.530881,57.0917658 C150.805587,57.7764716 149.944411,58.3032363 148.949116,58.6694128 C147.95294,59.0364716 146.864116,59.220001 145.683528,59.220001 C144.50294,59.220001 143.414117,59.0364716 142.418822,58.6694128 C141.422646,58.3032363 140.562352,57.7764716 139.836175,57.0917658 C139.110881,56.4079422 138.546176,55.5776481 138.140293,54.6044129 C137.734411,53.6294129 137.53147,52.5432365 137.53147,51.3423541 Z" id="Fill-4"></path>
                <polyline id="Fill-5" points="158.146762 43.8458835 161.775879 43.8458835 164.18735 53.4608836 164.229703 53.4608836 167.388526 43.8458835 170.482938 43.8458835 173.620585 53.7150012 173.662056 53.7150012 176.201467 43.8458835 179.57382 43.8458835 175.156762 58.8397071 172.189409 58.8397071 168.860291 48.4632365 168.817938 48.4632365 165.488821 58.8397071 162.629115 58.8397071 158.146762 43.8458835"></polyline>
                <path d="M72.8991137,9.12176481 C72.0829373,8.81911774 70.6041138,8.61617656 68.8694079,8.61617656 L66.3185257,8.61617656 L66.3185257,18.1332356 L68.7167609,18.1332356 C71.7776432,18.1332356 73.1038196,17.8288238 74.0726431,16.9694121 C74.939996,16.159412 75.449996,14.8932355 75.449996,13.4250002 C75.449996,11.2482354 74.5826431,9.729706 72.8991137,9.12176481 Z M76.623525,38.1291181 C75.2461721,35.801471 74.6849957,34.838824 73.3076428,32.3585298 C69.7879371,26.0302944 68.7167607,24.3088238 67.4417608,23.7520591 C67.0835255,23.6011767 66.7782314,23.4988238 66.3185255,23.449412 L66.3185255,38.1291181 L59.3294082,38.1291181 L59.3294082,2.94617646 L72.5426429,2.94617646 C78.8170543,2.94617646 82.9491129,7.09676475 82.9491129,13.2732354 C82.9491129,18.5382355 79.4294072,22.891765 75.0423486,22.9932356 C75.7561721,23.5500003 76.0623486,23.854412 76.5220544,24.4614709 C78.3582308,26.7388238 83.7661717,35.9020593 85.0411717,38.1291181 L76.623525,38.1291181 Z" id="Fill-6"></path>
                <polygon id="Fill-7" points="88.3076452 38.1291181 95.7555862 38.1291181 95.7555862 2.94617646 88.3076452 2.94617646"></polygon>
                <path d="M111.417349,38.8888224 C107.387643,38.8888224 102.898232,37.7241165 99.3273494,35.6991166 L101.980585,30.1817638 C105.296467,31.9032344 108.152643,33.0158814 111.723525,33.0158814 C115.80529,33.0158814 117.947643,31.3464697 117.947643,28.207058 C117.947643,25.9288228 116.467937,24.511764 113.305584,23.6514699 L109.377349,22.5882347 C105.857643,21.62647 103.663232,20.258823 102.388232,18.1332348 C101.418526,16.5644113 100.908526,14.7414702 100.908526,12.7667644 C100.908526,6.33794109 106.112643,1.88294123 113.611761,1.88294123 C117.947643,1.88294123 122.334701,3.19941178 125.44676,5.42735288 L122.079701,10.4894115 C118.866172,8.56499984 116.467937,7.80617633 113.815584,7.80617633 C110.907349,7.80617633 108.867349,9.47735275 108.867349,11.8561762 C108.867349,13.678235 109.836172,14.5897055 112.795584,15.3997055 L117.08029,16.5644113 C122.895878,18.1332348 126.059113,21.8294112 126.059113,27.0432345 C126.059113,34.1814696 120.242643,38.8888224 111.417349,38.8888224" id="Fill-8"></path>
                <polyline id="Fill-9" points="152.230589 8.81911772 143.762648 8.81911772 143.762648 38.1291181 136.519413 38.1291181 136.519413 8.81911772 127.846766 8.81911772 127.846766 2.94617646 153.404118 2.94617646 152.230589 8.81911772"></polyline>
                <path d="M166.109111,16.8167645 L164.680582,10.5899999 C164.475876,11.3999999 163.609405,15.0449998 162.99617,17.3744115 C162.333523,19.9049997 161.874699,21.5761762 161.109699,23.9038232 L168.04764,23.9038232 C167.79264,23.1449997 166.670287,19.2467644 166.109111,16.8167645 Z M172.281171,38.1291162 L169.781465,29.7767636 L159.374994,29.7767636 L156.875288,38.1291162 L149.427347,38.1291162 L161.058524,2.84470586 L168.761465,2.84470586 L179.933818,38.1291162 L172.281171,38.1291162 Z" id="Fill-10"></path>
                <path d="M25.1461753,19.5061766 C25.3261753,18.8461766 25.510587,18.1535296 25.7144105,17.3744119 C26.3267634,15.0450001 27.193234,11.4 27.3979398,10.59 L28.8264692,16.8167648 C29.1626456,18.2735296 29.6999985,20.2544119 30.1323514,21.7738237 C32.1097042,22.4250002 34.252057,22.8088237 36.6652922,22.732059 C36.7076451,22.7311767 36.7482333,22.7285296 36.7905863,22.7267649 C36.7905863,22.7267649 37.6385274,22.7108826 37.7744098,22.7267649 L31.4788219,2.84558815 L23.7758812,2.84558815 L19.4214698,16.0579413 C20.2614697,16.5458825 21.0882344,17.0558825 21.9088225,17.5632354 C22.9720578,18.2214707 24.0432342,18.8841178 25.1461753,19.5061766" id="Fill-11"></path>
                <path d="M12.1447055,38.1291188 L19.5926468,38.1291188 L21.6185292,31.3605894 C19.2547056,30.7508835 17.1970585,29.709707 15.3105879,28.5273541 L12.1447055,38.1291188" id="Fill-12"></path>
                <path d="M38.6558817,25.5299994 C38.4961758,25.0147053 38.0779405,24.6202935 37.3614699,24.6582347 C30.3467642,25.0888229 25.3623525,22.004117 20.9002937,19.24147 C16.5829409,16.5705876 12.5099998,14.0452935 7.2538234,15.0723523 C5.00470579,15.5135288 2.62323525,16.5794111 0.0661764714,18.3044111 C0.594705874,18.1455876 1.12323528,18.0202935 1.65352938,17.9161758 C7.89264692,16.6949994 13.1902939,19.7249994 18.3105879,22.6632347 C23.6638231,25.7249994 29.1944112,28.8899994 36.0494111,27.55147 C36.4702935,27.464117 36.899117,27.3494112 37.3270582,27.2338229 C36.7711758,27.9158818 36.1235288,28.6297053 35.5411758,29.0223523 C34.1294112,29.9752935 33.0405876,30.3255876 32.6849994,30.3988229 L34.9985288,38.1291171 L42.6511757,38.1291171 C42.6511757,38.1291171 38.6558817,25.529117 38.6558817,25.5299994" id="Fill-13"></path>
                <path d="M1.46029405,19.3182356 C12.9599991,20.1723533 16.8291164,33.7544116 32.3391153,28.9491177 C17.4035282,30.6944117 13.9129402,17.2994122 1.46029405,19.3182356" id="Fill-14"></path>
            </g>
        </g>
    </g>
</svg>